<?xml version="1.0" standalone="no"?><!DOCTYPE svg PUBLIC "-//W3C//DTD SVG 1.1//EN" "http://www.w3.org/Graphics/SVG/1.1/DTD/svg11.dtd"><svg t="1649586414419" class="icon" viewBox="0 0 1024 1024" version="1.1" xmlns="http://www.w3.org/2000/svg" p-id="2016" width="64" height="64" xmlns:xlink="http://www.w3.org/1999/xlink"><defs><style type="text/css">@font-face { font-family: feedback-iconfont; src: url("//at.alicdn.com/t/font_1031158_u69w8yhxdu.woff2?t=1630033759944") format("woff2"), url("//at.alicdn.com/t/font_1031158_u69w8yhxdu.woff?t=1630033759944") format("woff"), url("//at.alicdn.com/t/font_1031158_u69w8yhxdu.ttf?t=1630033759944") format("truetype"); }
</style></defs><path d="M988.16 621.568H867.328v-98.304c0-17.408-13.312-30.72-30.72-30.72H545.792v-90.112h120.832c17.408 0 30.72-13.312 30.72-30.72V68.608c0-17.408-13.312-30.72-30.72-30.72H363.52c-17.408 0-30.72 13.312-30.72 30.72v303.104c0 17.408 13.312 30.72 30.72 30.72h120.832v90.112h-296.96c-17.408 0-30.72 13.312-30.72 30.72v98.304H35.84c-17.408 0-30.72 13.312-30.72 30.72v303.104c0 17.408 13.312 30.72 30.72 30.72h303.104c17.408 0 30.72-13.312 30.72-30.72V652.288c0-17.408-13.312-30.72-30.72-30.72H218.112v-67.584h587.776v67.584H685.056c-17.408 0-30.72 13.312-30.72 30.72v303.104c0 17.408 13.312 30.72 30.72 30.72h303.104c17.408 0 30.72-13.312 30.72-30.72V652.288c0-17.408-13.312-30.72-30.72-30.72z m-593.92-522.24h241.664v241.664H394.24V99.328z m-86.016 825.344H66.56V683.008h241.664v241.664z m649.216 0H715.776V683.008h241.664v241.664z" fill="#629AF6" p-id="2017"></path></svg>